GREETZ: UnDeaD - BadGirl2k9 - virusofsaten - foxyb - WICCYWOLF - lizzymwah1

VISIT http://www.seedboxworld.biz/ for all ur seedbox needs!

RELEASE NAME: Predators 2010 R5 LiNE X264 - SDTeam
RELEASED BY: UnDeaD & BadGirl2k9
SIZE: 458 MB

LANGUAGE: English
IMDb: http://www.imdb.com/title/tt1424381/

PLOT: A group of elite warriors are hunted by members 
of a merciless alien race known as Predators.
 
COVER IMAGE: http://bayimg.com/EAPjIAAcf
SCREENS: 
http://i658.photobucket.com/albums/uu309/BadGirl2k9/screens/vlcsnap-2010-09-24-21h30m24s0.png 
http://i658.photobucket.com/albums/uu309/BadGirl2k9/screens/vlcsnap-2010-09-24-21h30m47s113.png 
http://i658.photobucket.com/albums/uu309/BadGirl2k9/screens/vlcsnap-2010-09-24-21h30m59s228.png

General
Format                           : MPEG-4
Format profile                   : Base Media
Codec ID                         : isom
File size                        : 458 MiB
Duration                         : 1h 42mn
Overall bit rate                 : 625 Kbps
Encoded date                     : UTC 2010-09-23 16:56:26
Tagged date                      : UTC 2010-09-23 16:56:26

Video
ID                               : 1
Format                           : AVC
Format/Info                      : Advanced Video Codec
Format profile                   : High@L2.2
Format settings, CABAC           : Yes
Format settings, ReFrames        : 4 frames
Codec ID                         : avc1
Codec ID/Info                    : Advanced Video Coding
Duration                         : 1h 42mn
Duration_LastFrame               : 50ms
Bit rate mode                    : Variable
Bit rate                         : 494 Kbps
Nominal bit rate                 : 500 Kbps
Maximum bit rate                 : 4 659 Kbps
Width                            : 720 pixels
Height                           : 288 pixels
Display aspect ratio             : 2.500
Frame rate mode                  : Constant
Frame rate                       : 20.000 fps
Resolution                       : 8 bits
Colorimetry                      : 4:2:0
Scan type                        : Progressive
Bits/(Pixel*Frame)               : 0.119
Stream size                      : 362 MiB (79%)
Title                            : Imported with GPAC 0.4.6-DEV (internal rev. 5)
Writing library                  : x264 core 102 r1666 d058f37

Audio
ID                               : 2
Format                           : MPEG Audio
Format version                   : Version 1
Format profile                   : Layer 3
Codec ID                         : 6B
Duration                         : 1h 42mn
Bit rate mode                    : Constant
Bit rate                         : 128 Kbps
Maximum bit rate                 : 134 Kbps
Channel(s)                       : 2 channels
Sampling rate                    : 44.1 KHz
Stream size                      : 93.9 MiB (20%)
Title                            : Imported with GPAC 0.4.6-DEV (internal rev. 5)

GROUP NOTE: Big thanks to seedboxworld.biz for the seedbox!
